<svg xmlns="http://www.w3.org/2000/svg" viewBox="0 0 100 99.1"><path d="M91.6 22a49.3 49.3 0 0 1-13.8 68.7c-22.9 15.2-54.1 9.1-69.4-13.6A49.5 49.5 0 0 1 22.2 8.3C45.1-6.8 76.3-.7 91.6 22z" fill="#004b8b" fill-rule="evenodd"/><path d="M76.2 88.4a47.7 47.7 0 0 1-65.7-12.9 46.8 46.8 0 0 1 13.1-65.2 47.6 47.6 0 0 1 65.7 13 46.7 46.7 0 0 1-13.1 65.1zm14.2-65.9C75.5.4 45.1-5.5 22.8 9.2a48.2 48.2 0 0 0-13.4 67c14.9 22.1 45.3 28 67.6 13.3a48.2 48.2 0 0 0 13.4-67zm-24.2 51a29.4 29.4 0 0 1-40.7-8 28.8 28.8 0 0 1 8-40.3 29.5 29.5 0 0 1 40.8 8 28.9 28.9 0 0 1-8.1 40.3zm9.2-41.1A30.9 30.9 0 0 0 32.8 24a30.4 30.4 0 0 0-8.5 42.3A31 31 0 0 0 67 74.7a30.3 30.3 0 0 0 8.4-42.3zM11.5 46.7a1.9 1.9 0 1 1 0 3.8 1.9 1.9 0 0 1-1.8-1.9 1.9 1.9 0 0 1 1.8-1.9zm76.5 0a1.9 1.9 0 1 1-1.8 1.9 1.9 1.9 0 0 1 1.8-1.9zM53.7 48h-.9v-.2h.8v.2h.1zm3.2.1c0 .4-.8.4-.9-.2s.9-.6.9-.3-.4.1-.4.3.1.3.4.2zm-16.2-1h9.2v-8.5h9.4v8.5h-9c.5 1.7.9 3.2 1.4 4.4h2.9V51c-.1.2-.3.2-.5 0a.2.2 0 0 1-.4-.1c-.2.1-.4.1-.5-.1a.6.6 0 0 1-.6.4H52c-.1-.1-.4.1-.5.1l.7-2.2a.7.7 0 0 1 .9-.5c.6.1.5.6.4.9h.9c.1 0 .2-.2.3-.3h-.2l.3-.3c-.1 0-.5.3-.7 0s.5 0 .5-.1H54c0-.2.1-.3.6-.3 1-.3.8.1 1.1.5h-.2c.1.2.1.3.2.4h-.2l.2.3h.6c-.1-.3-.1-.7.4-.8a.7.7 0 0 1 .8.3l1.2 2.3h-1.1c-.3-.1-.4 0-.6-.5s-.2.3-.4.1-.3.3-.4.1-.2.3-.4.1v.5h3.3v.7h.1v1.6c-.1 2-3 2.8-4.6 3.4-1.6-1.7-3.1-4.3-4.8-10.1a46.8 46.8 0 0 1-1.5 4.8h-.5v-.4h-.2c.1-.3.1-.5.2-.8s.2-.1.2 0-.1-.4-.3-.2-.1-.2 0-.3.3-.1.3.1-.1-.7-.5-.2a.4.4 0 0 0-.1-.3h.3c.2-.1-.1-.4-.4-.2s-.3-1.3.2-1.4a.5.5 0 0 1 .6.3c.2.2.1.2 0 .3h.1c-.2.1.2.5.2.7v-.3c.1.1.1.1.1.2v-.3h.1c0-.3 0-.3-.1-.4s.1-.1.2-.2-.4-.5-.8-.7-1.2.7-.9 1.4l.4 1.2a1 1 0 0 1-.1.9H47v.4h-.4c-.7-.5-.9-1.1-1.3-1.5l.6.2a.5.5 0 0 1-.2-.4.6.6 0 0 0 .7.2c-.2-.2-.4-.3-.4-.7l.4.4c.2-.4.1-.5-.1-.8h.3c.1 0 0-.2-.2-.3h.2c.1 0 0-.2-.2-.3h.2c-.4-.2-.2-.3-.7-.5s-.2-.4-.3-.2h-.1a.2.2 0 1 0-.4 0h-.5v.2l-.5.2c-.1 0-.1.1 0 .1a.8.8 0 0 0 .1.4l.2-.2h.1c0 .1.1.1.1.3s-.9-.1-.9-.2-.2-.2-.1 0 .1.2.9.3h-1c-.3-.4-.7-.1-1.1-.8h.1v.3h.2l-.2-.3a4.5 4.5 0 0 1 1.6-.3l.6-.6a3.3 3.3 0 0 0-2.2.8h-.1V48h-.2v.2H42c-.2 0-.3 0-.4.2s-.2.4 0 .5h.2c0 .1 0 .2.1.2h.1c0 .2.1.3.1.4h.1c0 .1.1.3.1.4l.2-.2c-.1.2-.1.3.1.4l.3.2h.1c0 .1-.1.2-.3.2s.3.1.4 0a.2.2 0 0 1-.2.2h.4a1.6 1.6 0 0 0-.9.3c.1-.1.1-.3 0-.2h-.2c-.1 0-.1.1-.1.2s0-.3-.1-.2h-.2c-.2-.1 0 0 0 .1-.1-.1-.1-.1-.2 0s0 .1 0 .2.1.2.1.3.4-.1.5-.2v.2l.4-.2v.2l.3-.2c0 .1-.1.1-.1.2s.3-.1.3-.2v.2l.4-.2v.2l.3-.3V51l.3-.2a.3.3 0 0 0-.1.2l.3-.2c.1.5.9.5 1 .8v.3h-.9v-.4h-.9v.4h-.9v-.4h-.9v.4h-1zm.6-1.5v-4.3a1.1 1.1 0 0 1 1.2-1.1c.8.2.9.4.6 1a2.8 2.8 0 0 0 1.2.4l.3-.4h-.2c.2-.2.4-.2.5-.4s-.1-.3-.2-.3h-.3v.3h-.2v-.3h-.1c-.2-.3-.1-.4.1-.5s0-.3 0-.5h-.3v-.3h.3V39h.3a.4.4 0 0 1-.1.3h.4v.2h-.4c0 .1.1.4.1.5h.1c.1-.3.6-.4.9-.3s.4.5.7.8H46c.1.2.2.2.2.4H46l.3.5H46a.5.5 0 0 1 .2.4 2.9 2.9 0 0 0 1.1-.3c-.2-.6-.2-.9.5-1.1s1.3 0 1.3 1.2v4a.6.6 0 0 0 .3.6c-.3 0-.5-.1-.8-.6s-.3-.1-.6-.6-.5-.1-.5-1.7c0 .2-.1.2-.2.2s-.3-.1-.3-.2-.1.2-.3.2l-.2-.2.8 1.2h-.4l.7 1.1h.1s.2-.1.3 0a.3.3 0 0 1 .3.3h-.2c-.2.1-.2 0-.4 0s.3.1.4.3-.1.1-.1.1a.2.2 0 0 1 0 .3c0-.2-.1-.2-.1-.2h-.1c-.3-.2-.1-.3-.2-.4s-.1-.1-.1 0 .1.3-.1.4c0 .1-.2 0-.2.3s-.1-.3 0-.3h-.1c0-.1.2-.2.3-.4s0 0 0-.1-.2.2-.4.2c-.1.1-.2 0-.2.2s-.1-.3.1-.3-.1 0 0-.1h.3c.2-.1.1 0 .1 0l-.8-1a.8.8 0 0 1-.1.4 2.2 2.2 0 0 0-.5-.8h-.1c0 .1 0 0-.1 0a4.8 4.8 0 0 0 .7 1.8l-.5.3c0 .1.1.2.1.3l-.8.3-.9-.3.2-.4-.7-.3a5.3 5.3 0 0 0 1-1.7h-.2a1.6 1.6 0 0 1-.5.6c-.1 0-.1-.1-.1-.2l-1 1c.1 0 .4 0 .4.1.1 0 .2.2.1.2h-.2s-.4-.2-.4-.1.2.2.3.3-.1 0-.1.1a.1.1 0 0 1 0 .2c-.1-.2-.2-.1-.2-.2a1 1 0 0 1-.1-.4c-.1-.1-.1 0-.1 0s.1.2-.2.3h-.1c0 .1-.1 0-.1.3a.2.2 0 0 1 0-.3c.1-.1-.1 0-.1-.1l.4-.3c-.2 0-.2.1-.4 0H42c0-.2.1-.3.3-.2.1-.2.1 0 .3-.1s.1.1.1 0a12 12 0 0 0 1-1.1h-.3l.5-1-.2.2c-.1 0-.1-.1-.2-.2l-.2.2c-.2 0-.3-.1-.3-.2s-.2 1.2-.6 1.4-.2.5-.6.7a1.1 1.1 0 0 1-.7.8l.2-.5zm.9-6.4h.2V39h.7v.2H43v.2h-.7v-.2h-.1zm4.4-.2c0-.3 1.1-.4 1.1.4s-1.2.6-1.2.2.6 0 .6-.2a.4.4 0 0 0-.4-.4zm6.8 18.3a1.5 1.5 0 0 1-1.1-.3 1.2 1.2 0 0 1-1.3.4c-.2.2-.6.1-.2-.1s-.7-.2-.7-.5.2-.1.3 0l.2-.2c-.5-.5.8-1 .5-1.3s-.3.1-.4.2.1-.5.5-.5l-.7-1.1a2.1 2.1 0 0 1-.3-1.5c.3-1.1 0-.9 0-1.2a.5.5 0 0 1 .3-.7c-.2.3.7.6.3 1.2s.4.9.7 1.4-.3-.8-.8-.8.8 1.3.8 1.4h.2c0-.1.1-.1.2-.1a.6.6 0 0 0 0 .6l.6 1a1.6 1.6 0 0 1-.1 1.5c.3-.1.5-.1.7-.3s.1.2 0 .3h.4l-.4.2q.1 0 .3.3zm-4.3 0c.3.2 0 .3-.2.1h-.1a1.6 1.6 0 0 1-1.3-.3 1.7 1.7 0 0 1-1.2.3q.2-.3.3-.3c0-.1-.2-.2-.3-.2l.4-.2v-.3l.7.4a1.8 1.8 0 0 1-.1-1.6 7.6 7.6 0 0 1 .8-1.1v.2a1.5 1.5 0 0 0-.1-.7h.5c.6-.8 1.2-1.5.8-1.5s0 .6-.8.8-.4-1.3.6-1.4.6-.8.3-1.2.5.3.4.7-.3.2 0 1.3a1.8 1.8 0 0 1-.3 1.4 7.5 7.5 0 0 0-.7 1.2c.4 0 .6.2.5.4s-.2-.2-.4-.1 1.1.7.5 1.2l.2.2h.3c0 .4-.5.6-.8.7zm-3.8-1.9V54l.3-.4.5-.3.6.2.3.5v.4a7.5 7.5 0 0 1-.7 1.2l-.3-.2a.6.6 0 0 1-.8 0zm-1.8 0a.6.6 0 0 1-.9-.2.7.7 0 0 1-.9.2v-1.5l.4-.4.5-.2.6.2.3.5zm-1.2 1.3l7.5 2.5c2.9-.9 9.4-2.5 9.8-4.8 0-.2.1-.4.1-.6V38H40.2v16.5c.1 1.1 1.1 1.7 2.1 2.2zm11.1-3.3h.3v.3h.4v-.5h-.2v-.3h.2v-.4h-.2v.2h-.2v-.2h-.3v.2h-.2v-.2H53v.4h.2v.3H53v.5h.4zm6.8 1c0 2.4-3.7 3-10.4 5.5-6.3-2.2-10-2.7-10.1-5V37.6h20.5zm-15-26.8v-.5a10.9 10.9 0 0 1 2.2.4l.3.7a7.6 7.6 0 0 0-2.5-.6zm3.7-2a.7.7 0 0 1-.5.8.7.7 0 0 1-.8-.5zm8.8 34.6zm0 0zm11-14.9l.7.3c-.6-1.9-.5-4.4-.4-7.3l.7.5c-.1-1-.1-2-.1-2.9 0-5.7-3-7.2-5.3-7.9-4.2-.9-7.1 2.4-6.1 5.8a3.1 3.1 0 0 1-1.9 2.4c-1 .4-2 .4-2.5-.6l.7.2a1.6 1.6 0 0 1-.5-1.1 13.5 13.5 0 0 0-.8-2.4 4.2 4.2 0 0 1 .8 1.2 4.1 4.1 0 0 0-.6-3l.7.5a1.6 1.6 0 0 0-.2-1.2 1.9 1.9 0 0 0-.5-1.6 1.4 1.4 0 0 0 1.1-.1 2.5 2.5 0 0 1-1.4-1.1 4.6 4.6 0 0 0-2.3-2 5.6 5.6 0 0 0-2.9 0 8.7 8.7 0 0 1-2.2.4v.4l-.5.2h-.1v-1.5l1.7.2v-1.2l-1.8.2c.1-.6.1-1.1.2-1.7a4.8 4.8 0 0 1-1.2 0 9.9 9.9 0 0 1 .2 1.7l-1.7-.2v1.1h1.6v1.6c-.6.2-1.1.6-.6 1.8.2-.4.3-.7.7-.8a21.6 21.6 0 0 1-.4 5.7 1.8 1.8 0 0 1 1.6-.1A15.4 15.4 0 0 1 45 28h.2c1 .2 1.9.5 2.2 1.6s-.5 1.5-1 2.3-.5 3-1.2 3.8h.5a2.5 2.5 0 0 1-2.6.6 3.2 3.2 0 0 1-1.8-2.1c1.3-4.2-3.1-6.9-6.2-6s-5 1.6-5.1 8a10.1 10.1 0 0 1-.2 2.4l.7-.3c0 2.7 0 6.2-.6 7.4l.7-.4c.3 10.9.4 18.9-.4 20.8a3.8 3.8 0 0 0 2.4-1.3l.9-.2V51.2L32 45.3a3.8 3.8 0 0 1 .1-2.1l.2-.8.6.6a1.7 1.7 0 0 1 .6.6v-8.3a.3.3 0 0 1 .5-.3.3.3 0 0 1 .3.3v9.5c1.4 3.9 2.4 7.9 3.5 11.9V33.6a.3.3 0 0 1 .3-.3.3.3 0 0 1 .3.3v25.3c.1.3.1.5.2.8a5.9 5.9 0 0 0 1.1-2.9 5.4 5.4 0 0 0 2 1.4c-.8 1.2-.9 1.6-2.1 2.2a2.5 2.5 0 0 0 2.5 0 6.7 6.7 0 0 1-.6 1.2 3.9 3.9 0 0 1-.8 1c-.7.2-1-.1-1.7.1a.4.4 0 0 1-.1-.3h.2l.3-.2h.3l1-.3c.1 0 .2.1.3 0s.4-.4.4-.5a.6.6 0 0 0-.7-.1c-.1-.1-.2.1-.2.2l-1 .3c-.2-.1-.4 0-.6 0h-.3c-1.5-5.5-2.9-11.5-4.8-16.8a3.4 3.4 0 0 0-1-1.6 2.8 2.8 0 0 0 0 1.8c1.2 5.4 3 11.6 4.4 16.9l-.3.2-.3.2c-.1-.1-.2 0-.2.1l-1 .3h-.3a.8.8 0 0 0-.5.5.8.8 0 0 0 .7.1l.3-.2.9-.3a.3.3 0 0 0 .4 0c.1.1.2 0 .3 0s.2.1.3 0h.1a.8.8 0 0 0 .1.4c-.7.3-.7.6-.6.9-.3.1-.6.6-.4.9a.5.5 0 0 0 .2.4h.1c-.3.3-.5.8.3.9s.3.6.5.7l.5.2a1.7 1.7 0 0 1 1 .3 1.2 1.2 0 0 0 .8-.1l.3-.3c.4-.2.5-.3.5-.7a8.5 8.5 0 0 0 .8-2.2 13.9 13.9 0 0 1 1.8-3.1 2.7 2.7 0 0 0 .7 2.3c.1-1.8.9-2.7 1.7-4l.7.2a20.9 20.9 0 0 1-2 5.2h.1a20.5 20.5 0 0 1-3.2 3.7l1.9 1.6-.6.6 2.6 1.7a3.5 3.5 0 0 1-.6.9c1.9 1.3 2.9 1.7 4.9 2.9 0 0 3.2-1.5 5.2-2.7l-.5-.9a22.7 22.7 0 0 0 2.8-1.8l-.6-.7 2-1.4c-3.4-3.1-4.5-5.7-5.8-9.2l1.1-.4a8.4 8.4 0 0 1 1.9 3.9c.7-.6.5-1.3.6-2.2a34 34 0 0 1 1.8 3c.1.5.1.8.2 1.1h.1a2.2 2.2 0 0 0 .5.8 1 1 0 0 0 .6.9.4.4 0 0 1 .1.3 2.5 2.5 0 0 0 1.2.2l.7-.3h.5l.6-.3a.3.3 0 0 0 0-.5c.4-.3.9-.6.4-.9H63a.8.8 0 0 0-.1-1 1.7 1.7 0 0 0-.7-1.3h-.1c.9-2.8 1.7-6.3 2.6-9.5.3 0 .4-.2.5-.4s.3-.3.1-.5a.4.4 0 0 0 .3-.6 13.7 13.7 0 0 0 1.9-2.4 7.8 7.8 0 0 0-.6-2.6.3.3 0 0 0-.2-.5h-.1c.1 0 .2-.1.2-.3s-.2-.3-.4-.3a.3.3 0 0 0-.3.3v.2h-.2c-.3-.1-.5.2-.6.4a13.7 13.7 0 0 0-1.8 1.9c-.2.4 0 1.3.3 2.8s-.4.4-.2.7-.3.3-.2.5 0 .4.2.5c-.8 3.1-1.6 5.8-2.8 9.4a6 6 0 0 1-1.8-.1 14.8 14.8 0 0 1-1.3-2.1 3.6 3.6 0 0 0 2.3 0 4.9 4.9 0 0 1-2.4-2.1 6.3 6.3 0 0 0 2.1-1.4 4.2 4.2 0 0 0 1.5 2.7l.3-.7V33.8a.3.3 0 0 1 .3-.3.3.3 0 0 1 .3.3v22.9l.9-3.6a.7.7 0 0 1-.1-.5.8.8 0 0 1 0-.8 1.1 1.1 0 0 1 .3-.8 7.7 7.7 0 0 1-.2-1.5 2.1 2.1 0 0 1 0-1.1 3.9 3.9 0 0 1 .8-1l1.1-1a.9.9 0 0 1 .6-.6V35.5a.3.3 0 0 1 .3-.3.3.3 0 0 1 .3.3v9.6h.3a.8.8 0 0 1 .9.8v.2a.5.5 0 0 1 .2.4v.3c.1.5.3 1 .4 1.5a2.6 2.6 0 0 1 .1 1.2 2.6 2.6 0 0 1-.7 1.1l-1.1 1.3a.6.6 0 0 1-.1.4V64a2.8 2.8 0 0 0 1.2.4 4.1 4.1 0 0 0 2.2 1c-1.2-1.4-.7-11.6-.8-20.2zm-33.3 17l.7-.2c0-.1.2-.2.3-.2s.1-.1.2-.1c-.8-2.8-1.5-5.6-2.3-8.4v9.3a.9.9 0 0 1 .6-.3.4.4 0 0 1 .5-.1zm29.7-8.6c-.2.9-.5 1.8-.7 2.7s-.8 3.3-1.3 4.9a3.9 3.9 0 0 0 1.6 1.2 3.9 3.9 0 0 0 .8 1V53.4c-.1.2-.2.3-.4.3zm-8.5-.3h.2v.3h.4v-.5H57v-.3h.2v-.4H57v.2h-.2v-.2h-.2v.2h-.3v-.2h-.2v.4h.2v.3h-.2v.5h.5zm-1 .6h-.2v.4h.2v.3h-.2v.5h.4v-.3h.2v.3h.4v-.5h-.2v-.3h.2V54h-.2v.3H56V54h-.2v.3h-.2zM54 54h-.2v.4h.2v.3h-.2v.5h.4v-.3h.2v.3h.4v-.5h-.2v-.3h.2V54h-.2v.3h-.2V54h-.2v.3H54zm1-.6h.2v.3h.4v-.5h-.2v-.3h.2v-.4h-.2v.2h-.2v-.2H55v.2h-.2v-.2h-.2v.4h.2v.3h-.2v.5h.4zm2.1.6h-.2v.4h.2v.3h-.2v.5h.4v-.3h.2v.3h.5v-.5h-.2v-.3h.2V54h-.2v.3h-.3V54h-.2v.3h-.2zm1-.6h.2v.3h.4v-.5h-.2v-.3h.2v-.4h-.2v.2h-.2v-.2h-.2v.2h-.2v-.2h-.2v.4h.2v.3h-.2v.5h.4zm-6-10.4l.8-.2c-.1.2-.1.3 0 .4a.5.5 0 0 0 .2.4c-.1.1 0 .2 0 .3a3.1 3.1 0 0 0 .5 1.2.7.7 0 0 0-.4.6c0 .2.4.5.7.5a.6.6 0 0 0 .6.3.5.5 0 0 0 .5-.3c.3 0 .7-.2.7-.5a.6.6 0 0 0-.4-.6 3.1 3.1 0 0 0 .5-1.2.4.4 0 0 0 .1-.3c.1-.1.1-.2.1-.4s.1-.2 0-.4l.9.2c.8 0 1-.4 1.3-.8s-1-.4-1.6-.4.5-.5.5-1.2-.8-1.8-1.6-1.8a1.5 1.5 0 0 1 .8 1.4 1 1 0 0 1-.6 1c-.3-.2-.5-.1-.9.3a.3.3 0 0 0-.3-.3c-.2 0-.4.1-.4.3s-.5-.5-.9-.3-.6-.3-.6-1a1.3 1.3 0 0 1 .8-1.4 1.9 1.9 0 0 0-1.6 1.8c0 .8.3 1.2.6 1.2s-.9.6-1.6.4a1.2 1.2 0 0 0 1.3.8zm1.8-2.2l.5-.3.6.3v-.6l.4-.5h-.6l-.4-.6-.3.6h-.6l.5.4v.7zm-2.6 4.5c-.6.2-.5.3-.5.4l.2.2.3.2c.2 0 .3-.1.3-.5s.1.4.2.5l.3-.2.2-.2c.1-.1.1-.2-.5-.4s.6.1.7 0-.1-.2-.1-.3 0-.2-.1-.3-.2-.1-.6.3.3-.4.2-.5-.2 0-.4 0h-.3c-.1 0-.2.1.2.5s-.4-.2-.5-.2-.1.1-.1.2-.2.2-.1.3 0 .2.6 0zm6.9-.4c0-.6-1.6-.6-1.6.5s1.6 1 1.6.4a.6.6 0 0 1-.9-.4.7.7 0 0 1 .9-.5zM19.7 33.3a7.6 7.6 0 0 0 .8-2.1l-1.8-1c-.4-.1-.6-.1-.8.2l-.5.7-.8-.5 1.7-3.1.8.4-.2.6c-.1.3 0 .4.3.6l2.4 1.2a9.3 9.3 0 0 1-.9 3.8c-1.5 2.8-3.9 3.1-7.1 1.5s-4.4-4-2.8-7.1a6.9 6.9 0 0 1 2.4-2.7l2.1 1.3-.5 1-1.6-.5a4.2 4.2 0 0 0-1.6 1.9 2.5 2.5 0 0 0-.3 2.3 8.1 8.1 0 0 0 2.9 2.4c2.3 1.2 4.5 1.2 5.5-.9zm7.5-12.9c1.9 1.9 1.1 4.1-.3 5.4s-3.6 1.6-5.2-.1l-4.1-4.2c-.3-.3-.4-.3-.7-.1l-.7.4-.6-.6 2.7-2.6.6.6-.4.7c-.3.3-.2.4 0 .7l3.9 4a2.6 2.6 0 0 0 4 0 2.5 2.5 0 0 0 .8-1.6c.1-.6-.3-1.1-1.1-2l-3.9-3.9c-.2-.3-.4-.4-.7-.1l-.7.4-.6-.6 2.7-2.6.7.6-.5.7c-.3.3-.2.4.1.7zm9-1.1l-1 .5-7.1-7a1.1 1.1 0 0 0-1.2-.2l-.5.2-.4-.8 3.8-1.8.3.8-.6.4c-.3.2-.4.3-.3.5l.2.3 5.5 5.5-1.2-7.6a.4.4 0 0 0-.1-.3c-.1-.2-.2-.2-.5-.1l-.8.3-.4-.8 3.5-1.7.3.8-.4.3c-.4.2-.5.4-.4.9l1.3 9.8zm4.8-2v-.9l.8-.2a.4.4 0 0 0 .3-.6l-1.3-7.7c0-.4-.1-.6-.5-.6h-.8l-.2-.9 7.8-1.2.3 2.6-.9.2-.3-1a.4.4 0 0 0-.6-.3l-3.5.5.5 3.6 3.6-.6v1.1l-3.5.6.6 4 3.5-.6c.4 0 .6-.1.5-.5v-1.1l1-.2.5 2.6zm12.9-6.8l1.3.2a2.2 2.2 0 0 0 1.6-.2c.5-.3.7-.6.8-1.5s-.7-1.9-2.1-2.1l-1.1-.2-.5 3.8zm-.6 4.4c-.1.4 0 .5.4.6l.9.3v.9l-4-.6v-.8h.8c.4-.1.5-.2.6-.5l1-7.7c.1-.4 0-.5-.3-.6l-.8-.3v-.9l4 .6C58 6.2 59.3 7 59 9.1a3.1 3.1 0 0 1-3 2.5c.3.1.6.6.8 1.1l1.3 2.8a1.7 1.7 0 0 0 1.1 1h.6l-.2.8a2 2 0 0 1-1.3.2 2.2 2.2 0 0 1-1.6-1.5l-1.6-3.5a1.3 1.3 0 0 0-.8-.8h-.6zm10.9 2.7c-.2.4-.2.5.1.8l.7.5-.5.8-3.3-1.8.4-.8.8.2c.3.2.5.1.7-.3l3.7-6.8c.2-.3.2-.5-.1-.7L66 9l.5-.7 2.2 1.2.7 10.1 3.4-6.1c.2-.4.2-.5-.1-.7l-.6-.5.4-.8 3.3 1.8-.4.8-.8-.3c-.3-.2-.5 0-.6.3l-4.6 8.2-1.1-.6-.7-10.1-3.4 6zm15 9.2a3.6 3.6 0 0 1-5.5-.3c-1.7-1.8-1.6-3.5.1-5.2l4.3-4c.3-.3.3-.4.1-.7l-.5-.7.7-.6L81 18l-.6.7-.7-.5c-.3-.3-.4-.2-.7 0l-4.1 3.9a2.5 2.5 0 0 0 0 3.9 2.1 2.1 0 0 0 1.6.8c.6.1 1.1-.2 2.1-1.1l3.9-3.8c.3-.2.4-.4.1-.7l-.4-.7.6-.6 2.6 2.7-.6.6-.7-.5c-.3-.2-.4-.1-.7.1l-4.2 4zM78 31.4l.8-.4.5.7c.2.3.4.3.7.1l7-3.5c.3-.2.4-.3.3-.7l-.2-.7.8-.4 1.8 3.4-.8.4-.6-.7c-.2-.3-.4-.3-.7-.1l-7.4 3.7 1.4 2.7a.4.4 0 0 0 .6.3l1.1-.4.5.9-2.4 1.3-3.4-6.6zm-63.4 33l.7 1.2a1.9 1.9 0 0 0 1 1.3 2 2 0 0 0 1.8-.2c1.3-.6 1.3-1.7.7-3l-.5-1-3.7 1.7zm-4.1 1.9c-.4.2-.5.3-.3.7l.3 1-.8.4-1.9-3.7.9-.4.5.7c.2.3.4.3.7.1l7.3-3.4c.3-.2.4-.3.3-.7l-.2-.8.8-.4 1.8 3.7c.9 2 1 3.5-1 4.5a3.1 3.1 0 0 1-4-1.3 2 2 0 0 1-.4 1.4l-1.7 2.7a1.4 1.4 0 0 0-.2 1.5c0 .1.2.3.3.4l-.8.3a2.2 2.2 0 0 1-.9-1 2.5 2.5 0 0 1 .4-2.2l2.1-3.3a1.1 1.1 0 0 0 .2-1.1l-.2-.6zm12.8 5.9a7.3 7.3 0 0 0-3.3 2.1c-2.1 2-2.4 4.2-.7 5.8a3.5 3.5 0 0 0 2.3 1.1A8.4 8.4 0 0 0 25 79c2-2 2.3-4.1.6-5.7a3.1 3.1 0 0 0-2.3-1.1zm-5.2 8.3c-2.4-2.3-1.6-4.9.8-7.3s5.2-3.1 8-.4 1.5 5-.9 7.4-5.2 3-7.9.3zm9 7.4l.4-.9.8.2c.4.1.5 0 .6-.4l3.6-7.3a.4.4 0 0 0-.3-.6l-.7-.4.3-.9 3 1.2-.5 9.6 6-7.5 3.1 1.3-.4.8-.8-.2c-.4-.1-.5 0-.7.3l-2.4 7.7c-.1.4-.1.5.2.8l.8.4-.3.9-3.8-1.5.4-.9.8.3a.5.5 0 0 0 .6-.3l2.5-7.7-6.4 7.8-1-.4.4-10.2-3.3 7.4c-.1.3-.1.4.2.6l.8.4-.4.9-3.5-1.4zm22.6-4.3l-.2.7-1.5 4.4h3.4l-1.6-4.4v-.7zm.7-3.2l1.8 1.8-.6.4-1.8-1.4-1.8 1.4-.6-.4 1.8-1.8zm-1.3 1.8h1.4l3.5 9.5c.2.6.4.7.7.7h.7v1h-4.1v-.9h.9c.2-.1.4-.2.4-.4s-.1-.2-.1-.3l-.7-2h-4.2l-.6 2a.4.4 0 0 0 .3.7h.9v.9h-3.8v-.9h.6c.4-.1.5-.2.7-.7zm14.1 7.7c.1.3.2.5.6.4l.9-.2.3.9-3.7 1.4-.3-.9.7-.4c.4-.2.4-.4.2-.7L59 83c-.1-.4-.3-.6-.7-.5l-.8.3-.3-.9 2.5-1 8.5 6.2-2.6-6.7c-.2-.4-.3-.5-.7-.4l-.8.2-.3-.9 3.6-1.4.3.9-.7.4c-.3.2-.3.4-.2.7l3.6 9-1.3.5-8.5-6.2zm16.1-7.2l-3.1 2.4-.6-.7.6-.6a.6.6 0 0 0 0-.8l-5-6.2c-.3-.3-.4-.4-.8-.2l-.7.4-.6-.7 3.1-2.4.6.7-.6.6a.6.6 0 0 0 0 .8l5 6.2c.3.3.4.4.8.2l.7-.4zm4.1-3.8l-.8-.6.4-.7c.2-.4.1-.5-.2-.8l-6.5-4.7c-.3-.3-.5-.3-.7 0l-.6.6-.7-.6 4.8-6.4 2.1 1.7-.6.8-.9-.6c-.3-.2-.5-.1-.7.2l-2.2 2.9 3 2.2L82 70l.9.7-2.2 2.9 3.4 2.5 2.1-3c.3-.3.3-.4 0-.7l-.9-.8.7-.8 2.3 1.6-4.9 6.5zm8.7-15l-1.4 3.6-.9-.3.2-.8c.1-.4 0-.5-.4-.7l-7.4-2.9c-.4-.2-.6-.2-.8.2l-.4.7-.9-.3 1.5-3.7.8.4v.8c-.1.4 0 .5.3.6l7.5 3c.4.1.5.1.7-.2l.5-.8z" fill="#fff" fill-rule="evenodd"/></svg>