<svg xmlns="http://www.w3.org/2000/svg" viewBox="0 0 136.1 40"><g fill="#1c1080"><path d="M56.1 16.1a5.5 5.5 0 0 1-2.5-2.5 7.4 7.4 0 0 1-.9-3.6 7.2 7.2 0 0 1 .9-3.7 5.8 5.8 0 0 1 2.5-2.4 6.9 6.9 0 0 1 3.6-.9 7.4 7.4 0 0 1 4.6 1.4v1.5a6.1 6.1 0 0 0-4.5-1.6 5.7 5.7 0 0 0-2.9.7 4.8 4.8 0 0 0-2 2 5.6 5.6 0 0 0-.8 3 6.1 6.1 0 0 0 .8 3 4.6 4.6 0 0 0 2 1.9 5.4 5.4 0 0 0 2.9.7 9.5 9.5 0 0 0 2.5-.3 5.7 5.7 0 0 0 2.1-1.3v1.5a6.9 6.9 0 0 1-4.8 1.5 6.8 6.8 0 0 1-3.5-.9zm13.2 0a6 6 0 0 1-2.5-2.5 7.4 7.4 0 0 1-.9-3.6 7.5 7.5 0 0 1 .9-3.7 6.4 6.4 0 0 1 2.5-2.4 7.6 7.6 0 0 1 7.2 0A6.4 6.4 0 0 1 79 6.3a7.5 7.5 0 0 1 .9 3.7 7.4 7.4 0 0 1-.9 3.6 6 6 0 0 1-2.5 2.5 7.4 7.4 0 0 1-3.6.9 6.9 6.9 0 0 1-3.6-.9zm6.3-1.2a5.2 5.2 0 0 0 2-1.9 6 6 0 0 0 .7-3 5.8 5.8 0 0 0-.7-3 5.2 5.2 0 0 0-2-1.9 5.1 5.1 0 0 0-2.8-.7 5.5 5.5 0 0 0-2.8.7A5 5 0 0 0 68.1 7a6.1 6.1 0 0 0-.8 3 5.6 5.6 0 0 0 .8 3 4.6 4.6 0 0 0 1.9 2 5.5 5.5 0 0 0 2.8.7 7.7 7.7 0 0 0 2.8-.8zm4.9-11.6h1.6l4.5 11.3L91 3.3h1.6l-5.3 13.4h-1.4zm14.4 0h1.5v13.4h-1.5zm4.2 0h4.1a7 7 0 0 1 3.7.8 6 6 0 0 1 2.5 2.2 8 8 0 0 1 .8 3.6 6.2 6.2 0 0 1-1.9 5 7.5 7.5 0 0 1-5.4 1.8h-3.8zm3.7 12.1a6.5 6.5 0 0 0 4.5-1.4 5.5 5.5 0 0 0 1.4-4.1 5.3 5.3 0 0 0-1.4-3.9 5.3 5.3 0 0 0-4.1-1.5h-2.6v10.9zm9.3-5h5.9v1.2h-5.9zm10.8-5.5l-3 2.1V5.6l3.1-2.3h1.3v13.4h-1.5V4.9zm5.5 11.8v-1.3a3.4 3.4 0 0 0 1.5.2 4.2 4.2 0 0 0 3.4-1.3 6.8 6.8 0 0 0 1.3-4.2 2.3 2.3 0 0 1-1.5 1.2 4.8 4.8 0 0 1-2.2.5 4 4 0 0 1-2.2-.6 3.9 3.9 0 0 1-1.6-1.5 4.6 4.6 0 0 1-.5-2.3 3.8 3.8 0 0 1 .6-2.3 4.1 4.1 0 0 1 1.6-1.6 6.1 6.1 0 0 1 2.5-.6 4.4 4.4 0 0 1 3.5 1.5 5.6 5.6 0 0 1 1.3 4.1 10.7 10.7 0 0 1-1.5 6.2 5.3 5.3 0 0 1-4.6 2.2 2.7 2.7 0 0 1-1.6-.2zm5.3-7a3 3 0 0 0 .9-2.3 2.6 2.6 0 0 0-.4-1.5 3.2 3.2 0 0 0-1.1-1.2 3.3 3.3 0 0 0-1.7-.4 3 3 0 0 0-2.3.9 3.2 3.2 0 0 0-.9 2.3 2.9 2.9 0 0 0 .9 2.3 3.4 3.4 0 0 0 2.3.8 3.6 3.6 0 0 0 2.3-.9zM53 21.9h5.1a4.4 4.4 0 0 1 3.2 1 3.6 3.6 0 0 1 1.1 2.8 4.1 4.1 0 0 1-.8 2.5 3.9 3.9 0 0 1-2.4 1.2l3.1 5.8h-1.5l-3.2-5.7h-3.2v5.7H53V21.9zm5 6.4a3.2 3.2 0 0 0 2.2-.7 2.3 2.3 0 0 0 .8-1.9 2.5 2.5 0 0 0-.8-2 3.8 3.8 0 0 0-2.2-.6h-3.4v5.1H58zm9.5 6.4a6 6 0 0 1-2.5-2.5 6.9 6.9 0 0 1-.9-3.6A6.9 6.9 0 0 1 65 25a6 6 0 0 1 2.5-2.5 7.7 7.7 0 0 1 7.2 0 6 6 0 0 1 2.5 2.5 6.9 6.9 0 0 1 .9 3.6 6.9 6.9 0 0 1-.9 3.6 6 6 0 0 1-2.5 2.5 7.4 7.4 0 0 1-3.6.9 8 8 0 0 1-3.6-.9zm6.4-1.2a5.2 5.2 0 0 0 1.9-2 5.6 5.6 0 0 0 .7-3 5.4 5.4 0 0 0-.7-2.9 6.1 6.1 0 0 0-1.9-2 6.9 6.9 0 0 0-2.9-.7 6.8 6.8 0 0 0-2.8.7 5.2 5.2 0 0 0-1.9 2 5.8 5.8 0 0 0-.7 3 6 6 0 0 0 .7 3 5.2 5.2 0 0 0 1.9 2 6.8 6.8 0 0 0 2.8.7 7 7 0 0 0 2.9-.8zm13.7-11.6h1.5v5.9h7.6v-5.9h1.4v13.4h-1.4v-6.2h-7.6v6.1h-1.5zm13.2 0h8.6v1.3h-7.1v4.7h5.3v1.3h-5.3V34h7.1v1.2h-8.6zm10.9 0h1.5V34h7.1v1.3h-8.6zm10.4 0h5a5.4 5.4 0 0 1 3.3 1 3.8 3.8 0 0 1 1.2 3 3.6 3.6 0 0 1-1.2 2.9 5.4 5.4 0 0 1-3.3.9h-3.5v5.5h-1.5zm4.9 6.6a4.1 4.1 0 0 0 2.3-.6 2.6 2.6 0 0 0 .8-2.1 2.6 2.6 0 0 0-.8-2.1 4.1 4.1 0 0 0-2.3-.6h-3.4v5.3h3.4z"/><path d="M53 36.5H131.5V38.59H53z"/></g><circle cx="20" cy="20" r="20" fill="#ff1616"/></svg>
